<mxfile host="65bd71144e">
    <diagram name="Página-1" id="no-MUxJD6HHfrWlkMyee">
        <mxGraphModel dx="832" dy="2654" grid="1" gridSize="10" guides="1" tooltips="1" connect="1" arrows="1" fold="1" page="1" pageScale="1" pageWidth="827" pageHeight="1169" math="0" shadow="0">
            <root>
                <mxCell id="0"/>
                <mxCell id="1" parent="0"/>
                <mxCell id="_GSH8urz8mwtEAlAPmnd-1" value="&lt;font style=&quot;font-size: 14px;&quot;&gt;Interfaz del anfitrión&lt;/font&gt;" style="rounded=1;whiteSpace=wrap;html=1;" parent="1" vertex="1">
                    <mxGeometry x="243.75" y="-1660" width="120" height="60" as="geometry"/>
                </mxCell>
                <mxCell id="_GSH8urz8mwtEAlAPmnd-2" value="" style="endArrow=none;html=1;rounded=0;entryX=0.5;entryY=1;entryDx=0;entryDy=0;" parent="1" target="_GSH8urz8mwtEAlAPmnd-1" edge="1">
                    <mxGeometry width="50" height="50" relative="1" as="geometry">
                        <mxPoint x="304" y="-1100" as="sourcePoint"/>
                        <mxPoint x="493.75" y="-1320" as="targetPoint"/>
                    </mxGeometry>
                </mxCell>
                <mxCell id="_GSH8urz8mwtEAlAPmnd-3" value="&lt;font style=&quot;font-size: 14px;&quot;&gt;Lector de formularios&lt;/font&gt;" style="rounded=1;whiteSpace=wrap;html=1;" parent="1" vertex="1">
                    <mxGeometry x="500" y="-1660" width="120" height="60" as="geometry"/>
                </mxCell>
                <mxCell id="_GSH8urz8mwtEAlAPmnd-4" value="" style="endArrow=none;html=1;rounded=0;entryX=0.5;entryY=1;entryDx=0;entryDy=0;" parent="1" source="_GSH8urz8mwtEAlAPmnd-15" target="_GSH8urz8mwtEAlAPmnd-3" edge="1">
                    <mxGeometry width="50" height="50" relative="1" as="geometry">
                        <mxPoint x="560" y="-1100" as="sourcePoint"/>
                        <mxPoint x="750" y="-1320" as="targetPoint"/>
                    </mxGeometry>
                </mxCell>
                <mxCell id="_GSH8urz8mwtEAlAPmnd-5" value="BD" style="rounded=1;whiteSpace=wrap;html=1;" parent="1" vertex="1">
                    <mxGeometry x="780" y="-1660" width="120" height="60" as="geometry"/>
                </mxCell>
                <mxCell id="_GSH8urz8mwtEAlAPmnd-6" value="" style="endArrow=none;html=1;rounded=0;entryX=0.5;entryY=1;entryDx=0;entryDy=0;" parent="1" target="_GSH8urz8mwtEAlAPmnd-5" edge="1">
                    <mxGeometry width="50" height="50" relative="1" as="geometry">
                        <mxPoint x="840" y="-1100" as="sourcePoint"/>
                        <mxPoint x="1010" y="-1320" as="targetPoint"/>
                    </mxGeometry>
                </mxCell>
                <mxCell id="_GSH8urz8mwtEAlAPmnd-7" value="&lt;font style=&quot;font-size: 18px;&quot;&gt;Anfitrión&lt;/font&gt;" style="shape=umlActor;verticalLabelPosition=bottom;verticalAlign=top;html=1;outlineConnect=0;" parent="1" vertex="1">
                    <mxGeometry x="20" y="-1680" width="50" height="80" as="geometry"/>
                </mxCell>
                <mxCell id="_GSH8urz8mwtEAlAPmnd-8" value="" style="endArrow=none;html=1;rounded=0;entryX=0.5;entryY=1;entryDx=0;entryDy=0;" parent="1" edge="1">
                    <mxGeometry width="50" height="50" relative="1" as="geometry">
                        <mxPoint x="44.5" y="-1070" as="sourcePoint"/>
                        <mxPoint x="44.5" y="-1570" as="targetPoint"/>
                    </mxGeometry>
                </mxCell>
                <mxCell id="_GSH8urz8mwtEAlAPmnd-9" value="&lt;font style=&quot;font-size: 15px;&quot;&gt;US1: Como &quot;Anfitrión&quot; quiero poder cargar una plantilla guardada para poder (modificar: para dejarla por defecto) rellenar las respuestas&lt;/font&gt;" style="text;html=1;align=center;verticalAlign=middle;resizable=0;points=[];autosize=1;strokeColor=none;fillColor=none;" parent="1" vertex="1">
                    <mxGeometry x="35" y="-1740" width="930" height="30" as="geometry"/>
                </mxCell>
                <mxCell id="_GSH8urz8mwtEAlAPmnd-10" value="" style="rounded=1;whiteSpace=wrap;html=1;rotation=90;" parent="1" vertex="1">
                    <mxGeometry x="-168.75" y="-1338.75" width="427.5" height="20" as="geometry"/>
                </mxCell>
                <mxCell id="_GSH8urz8mwtEAlAPmnd-11" value="ALT" style="shape=umlFrame;whiteSpace=wrap;html=1;pointerEvents=0;" parent="1" vertex="1">
                    <mxGeometry x="20" y="-1420" width="850" height="270" as="geometry"/>
                </mxCell>
                <mxCell id="_GSH8urz8mwtEAlAPmnd-12" value="&lt;span style=&quot;font-size: 14px;&quot;&gt;verificarFormato&lt;/span&gt;" style="html=1;verticalAlign=bottom;endArrow=block;curved=0;rounded=0;entryX=0;entryY=0;entryDx=0;entryDy=5;" parent="1" source="_GSH8urz8mwtEAlAPmnd-22" target="_GSH8urz8mwtEAlAPmnd-15" edge="1">
                    <mxGeometry x="0.0025" relative="1" as="geometry">
                        <mxPoint x="315.5899999999997" y="-1494.7125" as="sourcePoint"/>
                        <mxPoint as="offset"/>
                    </mxGeometry>
                </mxCell>
                <mxCell id="_GSH8urz8mwtEAlAPmnd-13" value="&lt;font style=&quot;font-size: 15px;&quot;&gt;return verificación completada&lt;/font&gt;" style="html=1;verticalAlign=bottom;endArrow=open;dashed=1;endSize=8;curved=0;rounded=0;exitX=0;exitY=1;exitDx=0;exitDy=-5;" parent="1" source="_GSH8urz8mwtEAlAPmnd-15" target="_GSH8urz8mwtEAlAPmnd-22" edge="1">
                    <mxGeometry relative="1" as="geometry">
                        <mxPoint x="315.5899999999997" y="-1395.5324999999998" as="targetPoint"/>
                    </mxGeometry>
                </mxCell>
                <mxCell id="_GSH8urz8mwtEAlAPmnd-14" value="" style="endArrow=none;html=1;rounded=0;entryX=0.5;entryY=1;entryDx=0;entryDy=0;" parent="1" source="_GSH8urz8mwtEAlAPmnd-27" target="_GSH8urz8mwtEAlAPmnd-15" edge="1">
                    <mxGeometry width="50" height="50" relative="1" as="geometry">
                        <mxPoint x="560" y="-1100" as="sourcePoint"/>
                        <mxPoint x="560" y="-1600" as="targetPoint"/>
                    </mxGeometry>
                </mxCell>
                <mxCell id="_GSH8urz8mwtEAlAPmnd-15" value="" style="html=1;points=[[0,0,0,0,5],[0,1,0,0,-5],[1,0,0,0,5],[1,1,0,0,-5]];perimeter=orthogonalPerimeter;outlineConnect=0;targetShapes=umlLifeline;portConstraint=eastwest;newEdgeStyle={&quot;curved&quot;:0,&quot;rounded&quot;:0};" parent="1" vertex="1">
                    <mxGeometry x="555" y="-1500" width="10" height="50" as="geometry"/>
                </mxCell>
                <mxCell id="_GSH8urz8mwtEAlAPmnd-16" value="&lt;font style=&quot;font-size: 14px;&quot;&gt;&lt;b&gt;[formato del archivo es correcto]&lt;/b&gt;&lt;/font&gt;" style="text;html=1;align=center;verticalAlign=middle;resizable=0;points=[];autosize=1;strokeColor=none;fillColor=none;" parent="1" vertex="1">
                    <mxGeometry x="53.75" y="-1386.87" width="240" height="30" as="geometry"/>
                </mxCell>
                <mxCell id="_GSH8urz8mwtEAlAPmnd-17" value="" style="html=1;points=[[0,0,0,0,5],[0,1,0,0,-5],[1,0,0,0,5],[1,1,0,0,-5]];perimeter=orthogonalPerimeter;outlineConnect=0;targetShapes=umlLifeline;portConstraint=eastwest;newEdgeStyle={&quot;curved&quot;:0,&quot;rounded&quot;:0};" parent="1" vertex="1">
                    <mxGeometry x="835" y="-1386.87" width="10" height="35" as="geometry"/>
                </mxCell>
                <mxCell id="_GSH8urz8mwtEAlAPmnd-18" value="&lt;font style=&quot;font-size: 14px;&quot;&gt;insertPlantilla&lt;/font&gt;" style="html=1;verticalAlign=bottom;endArrow=block;curved=0;rounded=0;entryX=0;entryY=0;entryDx=0;entryDy=5;" parent="1" source="_GSH8urz8mwtEAlAPmnd-27" target="_GSH8urz8mwtEAlAPmnd-17" edge="1">
                    <mxGeometry relative="1" as="geometry">
                        <mxPoint x="740" y="-1455" as="sourcePoint"/>
                    </mxGeometry>
                </mxCell>
                <mxCell id="_GSH8urz8mwtEAlAPmnd-19" value="&lt;font style=&quot;font-size: 14px;&quot;&gt;return ok&lt;/font&gt;" style="html=1;verticalAlign=bottom;endArrow=open;dashed=1;endSize=8;curved=0;rounded=0;exitX=0;exitY=1;exitDx=0;exitDy=-5;" parent="1" source="_GSH8urz8mwtEAlAPmnd-17" target="_GSH8urz8mwtEAlAPmnd-27" edge="1">
                    <mxGeometry relative="1" as="geometry">
                        <mxPoint x="740" y="-1385" as="targetPoint"/>
                    </mxGeometry>
                </mxCell>
                <mxCell id="_GSH8urz8mwtEAlAPmnd-20" value="" style="endArrow=none;html=1;rounded=0;entryX=0.5;entryY=1;entryDx=0;entryDy=0;" parent="1" source="_GSH8urz8mwtEAlAPmnd-22" edge="1">
                    <mxGeometry width="50" height="50" relative="1" as="geometry">
                        <mxPoint x="300" y="-1070" as="sourcePoint"/>
                        <mxPoint x="303.75" y="-1240" as="targetPoint"/>
                    </mxGeometry>
                </mxCell>
                <mxCell id="_GSH8urz8mwtEAlAPmnd-21" value="&lt;font style=&quot;font-size: 14px;&quot;&gt;pedirIngresoDeArchivo&lt;/font&gt;" style="html=1;verticalAlign=bottom;startArrow=oval;endArrow=block;startSize=8;curved=0;rounded=0;entryX=0;entryY=0;entryDx=0;entryDy=5;" parent="1" target="_GSH8urz8mwtEAlAPmnd-22" edge="1">
                    <mxGeometry relative="1" as="geometry">
                        <mxPoint x="60" y="-1515" as="sourcePoint"/>
                    </mxGeometry>
                </mxCell>
                <mxCell id="_GSH8urz8mwtEAlAPmnd-22" value="" style="html=1;points=[[0,0,0,0,5],[0,1,0,0,-5],[1,0,0,0,5],[1,1,0,0,-5]];perimeter=orthogonalPerimeter;outlineConnect=0;targetShapes=umlLifeline;portConstraint=eastwest;newEdgeStyle={&quot;curved&quot;:0,&quot;rounded&quot;:0};" parent="1" vertex="1">
                    <mxGeometry x="298.75" y="-1522.75" width="10" height="400" as="geometry"/>
                </mxCell>
                <mxCell id="_GSH8urz8mwtEAlAPmnd-23" value="&lt;span style=&quot;font-size: 14px;&quot;&gt;&lt;b&gt;[Si no]&lt;/b&gt;&lt;/span&gt;" style="text;html=1;align=center;verticalAlign=middle;resizable=0;points=[];autosize=1;strokeColor=none;fillColor=none;" parent="1" vertex="1">
                    <mxGeometry x="53.75" y="-1275" width="70" height="30" as="geometry"/>
                </mxCell>
                <mxCell id="_GSH8urz8mwtEAlAPmnd-24" value="&lt;font style=&quot;font-size: 14px;&quot;&gt;guardarPlantilla&lt;/font&gt;" style="html=1;verticalAlign=bottom;endArrow=block;curved=0;rounded=0;entryX=0;entryY=0;entryDx=0;entryDy=5;" parent="1" source="_GSH8urz8mwtEAlAPmnd-22" target="_GSH8urz8mwtEAlAPmnd-27" edge="1">
                    <mxGeometry relative="1" as="geometry">
                        <mxPoint x="310" y="-1365" as="sourcePoint"/>
                    </mxGeometry>
                </mxCell>
                <mxCell id="_GSH8urz8mwtEAlAPmnd-25" value="&lt;span style=&quot;font-size: 14px;&quot;&gt;return plantilla cargada&lt;/span&gt;" style="html=1;verticalAlign=bottom;endArrow=open;dashed=1;endSize=8;curved=0;rounded=0;exitX=0;exitY=1;exitDx=0;exitDy=-5;" parent="1" edge="1">
                    <mxGeometry relative="1" as="geometry">
                        <mxPoint x="311.88" y="-1310" as="targetPoint"/>
                        <mxPoint x="558.13" y="-1310" as="sourcePoint"/>
                    </mxGeometry>
                </mxCell>
                <mxCell id="_GSH8urz8mwtEAlAPmnd-26" value="" style="endArrow=none;html=1;rounded=0;entryX=0.5;entryY=1;entryDx=0;entryDy=0;" parent="1" target="_GSH8urz8mwtEAlAPmnd-27" edge="1">
                    <mxGeometry width="50" height="50" relative="1" as="geometry">
                        <mxPoint x="560" y="-1100" as="sourcePoint"/>
                        <mxPoint x="560" y="-1450" as="targetPoint"/>
                    </mxGeometry>
                </mxCell>
                <mxCell id="_GSH8urz8mwtEAlAPmnd-27" value="" style="html=1;points=[[0,0,0,0,5],[0,1,0,0,-5],[1,0,0,0,5],[1,1,0,0,-5]];perimeter=orthogonalPerimeter;outlineConnect=0;targetShapes=umlLifeline;portConstraint=eastwest;newEdgeStyle={&quot;curved&quot;:0,&quot;rounded&quot;:0};" parent="1" vertex="1">
                    <mxGeometry x="555" y="-1398.75" width="10" height="88.75" as="geometry"/>
                </mxCell>
                <mxCell id="_GSH8urz8mwtEAlAPmnd-28" value="&lt;font style=&quot;font-size: 14px;&quot;&gt;return formato de plantilla incorrecto&lt;/font&gt;" style="html=1;verticalAlign=bottom;endArrow=open;dashed=1;endSize=8;curved=0;rounded=0;" parent="1" edge="1">
                    <mxGeometry relative="1" as="geometry">
                        <mxPoint x="57.75" y="-1210" as="targetPoint"/>
                        <mxPoint x="300" y="-1210" as="sourcePoint"/>
                    </mxGeometry>
                </mxCell>
                <mxCell id="_GSH8urz8mwtEAlAPmnd-29" value="&lt;font style=&quot;font-size: 14px;&quot;&gt;dejar plantillaComoPredeterminada&lt;/font&gt;" style="html=1;verticalAlign=bottom;endArrow=block;curved=0;rounded=0;entryX=1;entryY=1;entryDx=0;entryDy=-5;entryPerimeter=0;" parent="1" source="_GSH8urz8mwtEAlAPmnd-27" target="_GSH8urz8mwtEAlAPmnd-27" edge="1">
                    <mxGeometry x="0.1579" y="120" relative="1" as="geometry">
                        <mxPoint x="319" y="-1384" as="sourcePoint"/>
                        <mxPoint x="565" y="-1384" as="targetPoint"/>
                        <Array as="points">
                            <mxPoint x="600" y="-1340"/>
                            <mxPoint x="600" y="-1315"/>
                        </Array>
                        <mxPoint as="offset"/>
                    </mxGeometry>
                </mxCell>
                <mxCell id="2" value="" style="edgeStyle=none;orthogonalLoop=1;jettySize=auto;html=1;" edge="1" parent="1">
                    <mxGeometry width="80" relative="1" as="geometry">
                        <mxPoint x="420" y="-1580" as="sourcePoint"/>
                        <mxPoint x="500" y="-1580" as="targetPoint"/>
                        <Array as="points"/>
                    </mxGeometry>
                </mxCell>
            </root>
        </mxGraphModel>
    </diagram>
</mxfile>